<?xml version="1.0" standalone="no"?>
<!DOCTYPE svg PUBLIC "-//W3C//DTD SVG 20010904//EN"
 "http://www.w3.org/TR/2001/REC-SVG-20010904/DTD/svg10.dtd">
<svg version="1.0" xmlns="http://www.w3.org/2000/svg"
 width="192.000000pt" height="192.000000pt" viewBox="0 0 192.000000 192.000000"
 preserveAspectRatio="xMidYMid meet">
<metadata>
Created by potrace 1.14, written by Peter Selinger 2001-2017
</metadata>
<g transform="translate(0.000000,192.000000) scale(0.100000,-0.100000)"
fill="#000000" stroke="none">
<path d="M1257 1855 c-37 -13 -75 -29 -85 -36 -116 -88 -155 -178 -156 -369 0
-36 -4 -68 -9 -71 -4 -3 -37 -5 -73 -4 -35 1 -67 -2 -71 -7 -3 -6 -5 -76 -5
-156 l0 -147 73 -3 c40 -2 76 -7 79 -12 3 -4 5 -231 5 -504 l-1 -496 191 0
190 0 0 502 0 503 145 3 c79 1 147 7 150 11 4 7 5 254 1 296 -1 7 -54 10 -151
10 l-150 -1 0 51 c0 59 27 110 68 127 45 18 154 10 226 -18 9 -3 12 32 11 150
0 85 -3 157 -6 161 -4 3 -17 8 -30 10 -13 3 -46 9 -74 14 -95 18 -253 11 -328
-14z"/>
<path d="M412 629 c-18 -4 -32 -4 -32 -2 0 3 -7 0 -15 -7 -8 -7 -15 -10 -15
-6 0 13 -86 -47 -118 -82 -125 -141 -77 -369 97 -454 61 -30 175 -31 241 -1
61 28 126 96 149 158 26 68 22 175 -9 236 -37 72 -122 140 -191 153 -13 3 -24
5 -24 6 0 5 -57 4 -83 -1z"/>
</g>
</svg>
